<svg width="25" height="24" viewBox="0 0 25 24" fill="none" xmlns="http://www.w3.org/2000/svg">
<mask id="mask0_55529_4482" style="mask-type:alpha" maskUnits="userSpaceOnUse" x="0" y="0" width="25" height="24">
<rect x="0.200195" width="24" height="24" fill="#D9D9D9"/>
</mask>
<g mask="url(#mask0_55529_4482)">
<path d="M5.2002 22C4.6502 22 4.17936 21.8042 3.7877 21.4125C3.39603 21.0208 3.2002 20.55 3.2002 20V6C3.2002 5.45 3.39603 4.97917 3.7877 4.5875C4.17936 4.19583 4.6502 4 5.2002 4H6.2002V3C6.2002 2.71667 6.29603 2.47917 6.4877 2.2875C6.67936 2.09583 6.91686 2 7.2002 2C7.48353 2 7.72103 2.09583 7.9127 2.2875C8.10436 2.47917 8.2002 2.71667 8.2002 3V4H16.2002V3C16.2002 2.71667 16.296 2.47917 16.4877 2.2875C16.6794 2.09583 16.9169 2 17.2002 2C17.4835 2 17.721 2.09583 17.9127 2.2875C18.1044 2.47917 18.2002 2.71667 18.2002 3V4H19.2002C19.7502 4 20.221 4.19583 20.6127 4.5875C21.0044 4.97917 21.2002 5.45 21.2002 6V20C21.2002 20.55 21.0044 21.0208 20.6127 21.4125C20.221 21.8042 19.7502 22 19.2002 22H5.2002ZM5.2002 20H19.2002V10H5.2002V20ZM5.2002 8H19.2002V6H5.2002V8ZM12.2002 14C11.9169 14 11.6794 13.9042 11.4877 13.7125C11.296 13.5208 11.2002 13.2833 11.2002 13C11.2002 12.7167 11.296 12.4792 11.4877 12.2875C11.6794 12.0958 11.9169 12 12.2002 12C12.4835 12 12.721 12.0958 12.9127 12.2875C13.1044 12.4792 13.2002 12.7167 13.2002 13C13.2002 13.2833 13.1044 13.5208 12.9127 13.7125C12.721 13.9042 12.4835 14 12.2002 14ZM8.2002 14C7.91686 14 7.67936 13.9042 7.4877 13.7125C7.29603 13.5208 7.2002 13.2833 7.2002 13C7.2002 12.7167 7.29603 12.4792 7.4877 12.2875C7.67936 12.0958 7.91686 12 8.2002 12C8.48353 12 8.72103 12.0958 8.9127 12.2875C9.10436 12.4792 9.2002 12.7167 9.2002 13C9.2002 13.2833 9.10436 13.5208 8.9127 13.7125C8.72103 13.9042 8.48353 14 8.2002 14ZM16.2002 14C15.9169 14 15.6794 13.9042 15.4877 13.7125C15.296 13.5208 15.2002 13.2833 15.2002 13C15.2002 12.7167 15.296 12.4792 15.4877 12.2875C15.6794 12.0958 15.9169 12 16.2002 12C16.4835 12 16.721 12.0958 16.9127 12.2875C17.1044 12.4792 17.2002 12.7167 17.2002 13C17.2002 13.2833 17.1044 13.5208 16.9127 13.7125C16.721 13.9042 16.4835 14 16.2002 14ZM12.2002 18C11.9169 18 11.6794 17.9042 11.4877 17.7125C11.296 17.5208 11.2002 17.2833 11.2002 17C11.2002 16.7167 11.296 16.4792 11.4877 16.2875C11.6794 16.0958 11.9169 16 12.2002 16C12.4835 16 12.721 16.0958 12.9127 16.2875C13.1044 16.4792 13.2002 16.7167 13.2002 17C13.2002 17.2833 13.1044 17.5208 12.9127 17.7125C12.721 17.9042 12.4835 18 12.2002 18ZM8.2002 18C7.91686 18 7.67936 17.9042 7.4877 17.7125C7.29603 17.5208 7.2002 17.2833 7.2002 17C7.2002 16.7167 7.29603 16.4792 7.4877 16.2875C7.67936 16.0958 7.91686 16 8.2002 16C8.48353 16 8.72103 16.0958 8.9127 16.2875C9.10436 16.4792 9.2002 16.7167 9.2002 17C9.2002 17.2833 9.10436 17.5208 8.9127 17.7125C8.72103 17.9042 8.48353 18 8.2002 18ZM16.2002 18C15.9169 18 15.6794 17.9042 15.4877 17.7125C15.296 17.5208 15.2002 17.2833 15.2002 17C15.2002 16.7167 15.296 16.4792 15.4877 16.2875C15.6794 16.0958 15.9169 16 16.2002 16C16.4835 16 16.721 16.0958 16.9127 16.2875C17.1044 16.4792 17.2002 16.7167 17.2002 17C17.2002 17.2833 17.1044 17.5208 16.9127 17.7125C16.721 17.9042 16.4835 18 16.2002 18Z" fill="#C1C8C9"/>
</g>
</svg>
