<svg width="16" height="16" viewBox="0 0 16 16" fill="none" xmlns="http://www.w3.org/2000/svg">
<mask id="mask0_57652_180" style="mask-type:alpha" maskUnits="userSpaceOnUse" x="0" y="0" width="24" height="24">
<rect width="24" height="24" fill="#D9D9D9"/>
</mask>
<g mask="url(#mask0_57652_180)">
<path d="M8.00016 11.3333C8.18905 11.3333 8.34739 11.2694 8.47516 11.1417C8.60294 11.0139 8.66683 10.8556 8.66683 10.6667V8C8.66683 7.81111 8.60294 7.65277 8.47516 7.525C8.34739 7.39722 8.18905 7.33333 8.00016 7.33333C7.81127 7.33333 7.65294 7.39722 7.52516 7.525C7.39739 7.65277 7.3335 7.81111 7.3335 8V10.6667C7.3335 10.8556 7.39739 11.0139 7.52516 11.1417C7.65294 11.2694 7.81127 11.3333 8.00016 11.3333ZM8.00016 6C8.18905 6 8.34739 5.93611 8.47516 5.80833C8.60294 5.68055 8.66683 5.52222 8.66683 5.33333C8.66683 5.14444 8.60294 4.98611 8.47516 4.85833C8.34739 4.73055 8.18905 4.66666 8.00016 4.66666C7.81127 4.66666 7.65294 4.73055 7.52516 4.85833C7.39739 4.98611 7.3335 5.14444 7.3335 5.33333C7.3335 5.52222 7.39739 5.68055 7.52516 5.80833C7.65294 5.93611 7.81127 6 8.00016 6ZM8.00016 14.6667C7.07794 14.6667 6.21127 14.4917 5.40016 14.1417C4.58905 13.7917 3.8835 13.3167 3.2835 12.7167C2.6835 12.1167 2.2085 11.4111 1.8585 10.6C1.5085 9.78888 1.3335 8.92222 1.3335 8C1.3335 7.07777 1.5085 6.21111 1.8585 5.39999C2.2085 4.58888 2.6835 3.88333 3.2835 3.28333C3.8835 2.68333 4.58905 2.20833 5.40016 1.85833C6.21127 1.50833 7.07794 1.33333 8.00016 1.33333C8.92239 1.33333 9.78905 1.50833 10.6002 1.85833C11.4113 2.20833 12.1168 2.68333 12.7168 3.28333C13.3168 3.88333 13.7918 4.58888 14.1418 5.39999C14.4918 6.21111 14.6668 7.07777 14.6668 8C14.6668 8.92222 14.4918 9.78888 14.1418 10.6C13.7918 11.4111 13.3168 12.1167 12.7168 12.7167C12.1168 13.3167 11.4113 13.7917 10.6002 14.1417C9.78905 14.4917 8.92239 14.6667 8.00016 14.6667Z" fill="#FFB4AB"/>
</g>
</svg>
