<svg width="24" height="24" viewBox="0 0 24 24" fill="none" xmlns="http://www.w3.org/2000/svg">
<g clip-path="url(#clip0_54985_76079)">
<mask id="mask0_54985_76079" style="mask-type:alpha" maskUnits="userSpaceOnUse" x="0" y="0" width="24" height="25">
<rect y="0.000244141" width="24" height="24" fill="#D9D9D9"/>
</mask>
<g mask="url(#mask0_54985_76079)">
<path d="M12 17.0001C12.2833 17.0001 12.5208 16.9043 12.7125 16.7126C12.9042 16.521 13 16.2835 13 16.0001V12.0001C13 11.7168 12.9042 11.4793 12.7125 11.2876C12.5208 11.096 12.2833 11.0001 12 11.0001C11.7167 11.0001 11.4792 11.096 11.2875 11.2876C11.0958 11.4793 11 11.7168 11 12.0001V16.0001C11 16.2835 11.0958 16.521 11.2875 16.7126C11.4792 16.9043 11.7167 17.0001 12 17.0001ZM12 9.00015C12.2833 9.00015 12.5208 8.90431 12.7125 8.71265C12.9042 8.52098 13 8.28348 13 8.00015C13 7.71681 12.9042 7.47931 12.7125 7.28765C12.5208 7.09598 12.2833 7.00015 12 7.00015C11.7167 7.00015 11.4792 7.09598 11.2875 7.28765C11.0958 7.47931 11 7.71681 11 8.00015C11 8.28348 11.0958 8.52098 11.2875 8.71265C11.4792 8.90431 11.7167 9.00015 12 9.00015ZM12 21.9001C11.8833 21.9001 11.775 21.8918 11.675 21.8751C11.575 21.8585 11.475 21.8335 11.375 21.8001C9.125 21.0501 7.33333 19.6626 6 17.6376C4.66667 15.6126 4 13.4335 4 11.1001V6.37515C4 5.95848 4.12083 5.58348 4.3625 5.25015C4.60417 4.91681 4.91667 4.67515 5.3 4.52515L11.3 2.27515C11.5333 2.19181 11.7667 2.15015 12 2.15015C12.2333 2.15015 12.4667 2.19181 12.7 2.27515L18.7 4.52515C19.0833 4.67515 19.3958 4.91681 19.6375 5.25015C19.8792 5.58348 20 5.95848 20 6.37515V11.1001C20 13.4335 19.3333 15.6126 18 17.6376C16.6667 19.6626 14.875 21.0501 12.625 21.8001C12.525 21.8335 12.425 21.8585 12.325 21.8751C12.225 21.8918 12.1167 21.9001 12 21.9001ZM12 19.9001C13.7333 19.3501 15.1667 18.2501 16.3 16.6001C17.4333 14.9501 18 13.1168 18 11.1001V6.37515L12 4.12515L6 6.37515V11.1001C6 13.1168 6.56667 14.9501 7.7 16.6001C8.83333 18.2501 10.2667 19.3501 12 19.9001Z" fill="#67FF8D"/>
</g>
</g>
<defs>
<clipPath id="clip0_54985_76079">
<rect width="24" height="24" fill="white" transform="translate(0 0.000244141)"/>
</clipPath>
</defs>
</svg>
