<svg width="25" height="24" viewBox="0 0 25 24" fill="none" xmlns="http://www.w3.org/2000/svg">
<mask id="mask0_55529_5824" style="mask-type:alpha" maskUnits="userSpaceOnUse" x="0" y="0" width="25" height="24">
<rect x="0.399902" width="24" height="24" fill="#D9D9D9"/>
</mask>
<g mask="url(#mask0_55529_5824)">
<path d="M12.3999 17C12.6832 17 12.9207 16.9042 13.1124 16.7125C13.3041 16.5208 13.3999 16.2833 13.3999 16V12C13.3999 11.7167 13.3041 11.4792 13.1124 11.2875C12.9207 11.0958 12.6832 11 12.3999 11C12.1166 11 11.8791 11.0958 11.6874 11.2875C11.4957 11.4792 11.3999 11.7167 11.3999 12V16C11.3999 16.2833 11.4957 16.5208 11.6874 16.7125C11.8791 16.9042 12.1166 17 12.3999 17ZM12.3999 9C12.6832 9 12.9207 8.90417 13.1124 8.7125C13.3041 8.52083 13.3999 8.28333 13.3999 8C13.3999 7.71667 13.3041 7.47917 13.1124 7.2875C12.9207 7.09583 12.6832 7 12.3999 7C12.1166 7 11.8791 7.09583 11.6874 7.2875C11.4957 7.47917 11.3999 7.71667 11.3999 8C11.3999 8.28333 11.4957 8.52083 11.6874 8.7125C11.8791 8.90417 12.1166 9 12.3999 9ZM12.3999 22C11.0166 22 9.71657 21.7375 8.4999 21.2125C7.28324 20.6875 6.2249 19.975 5.3249 19.075C4.4249 18.175 3.7124 17.1167 3.1874 15.9C2.6624 14.6833 2.3999 13.3833 2.3999 12C2.3999 10.6167 2.6624 9.31667 3.1874 8.1C3.7124 6.88333 4.4249 5.825 5.3249 4.925C6.2249 4.025 7.28324 3.3125 8.4999 2.7875C9.71657 2.2625 11.0166 2 12.3999 2C13.7832 2 15.0832 2.2625 16.2999 2.7875C17.5166 3.3125 18.5749 4.025 19.4749 4.925C20.3749 5.825 21.0874 6.88333 21.6124 8.1C22.1374 9.31667 22.3999 10.6167 22.3999 12C22.3999 13.3833 22.1374 14.6833 21.6124 15.9C21.0874 17.1167 20.3749 18.175 19.4749 19.075C18.5749 19.975 17.5166 20.6875 16.2999 21.2125C15.0832 21.7375 13.7832 22 12.3999 22ZM12.3999 20C14.6332 20 16.5249 19.225 18.0749 17.675C19.6249 16.125 20.3999 14.2333 20.3999 12C20.3999 9.76667 19.6249 7.875 18.0749 6.325C16.5249 4.775 14.6332 4 12.3999 4C10.1666 4 8.2749 4.775 6.7249 6.325C5.1749 7.875 4.3999 9.76667 4.3999 12C4.3999 14.2333 5.1749 16.125 6.7249 17.675C8.2749 19.225 10.1666 20 12.3999 20Z" fill="#C1C8C9"/>
</g>
</svg>
