<svg width="16" height="16" viewBox="0 0 16 16" fill="none" xmlns="http://www.w3.org/2000/svg">
<mask id="mask0_202_5472" style="mask-type:alpha" maskUnits="userSpaceOnUse" x="0" y="0" width="24" height="24">
<rect width="24" height="24" fill="#D9D9D9"/>
</mask>
<g mask="url(#mask0_202_5472)">
<path d="M8.66683 7.73337V5.33337C8.66683 5.14449 8.60294 4.98615 8.47516 4.85837C8.34739 4.7306 8.18905 4.66671 8.00016 4.66671C7.81127 4.66671 7.65294 4.7306 7.52516 4.85837C7.39739 4.98615 7.3335 5.14449 7.3335 5.33337V7.98337C7.3335 8.07226 7.35016 8.15837 7.3835 8.24171C7.41683 8.32504 7.46683 8.40004 7.5335 8.46671L9.7335 10.6667C9.85572 10.7889 10.0113 10.85 10.2002 10.85C10.3891 10.85 10.5446 10.7889 10.6668 10.6667C10.7891 10.5445 10.8502 10.3889 10.8502 10.2C10.8502 10.0112 10.7891 9.8556 10.6668 9.73337L8.66683 7.73337ZM8.00016 14.6667C7.07794 14.6667 6.21127 14.4917 5.40016 14.1417C4.58905 13.7917 3.8835 13.3167 3.2835 12.7167C2.6835 12.1167 2.2085 11.4112 1.8585 10.6C1.5085 9.78893 1.3335 8.92226 1.3335 8.00004C1.3335 7.07782 1.5085 6.21115 1.8585 5.40004C2.2085 4.58893 2.6835 3.88337 3.2835 3.28337C3.8835 2.68337 4.58905 2.20837 5.40016 1.85837C6.21127 1.50837 7.07794 1.33337 8.00016 1.33337C8.92239 1.33337 9.78905 1.50837 10.6002 1.85837C11.4113 2.20837 12.1168 2.68337 12.7168 3.28337C13.3168 3.88337 13.7918 4.58893 14.1418 5.40004C14.4918 6.21115 14.6668 7.07782 14.6668 8.00004C14.6668 8.92226 14.4918 9.78893 14.1418 10.6C13.7918 11.4112 13.3168 12.1167 12.7168 12.7167C12.1168 13.3167 11.4113 13.7917 10.6002 14.1417C9.78905 14.4917 8.92239 14.6667 8.00016 14.6667ZM8.00016 13.3334C9.47794 13.3334 10.7363 12.8139 11.7752 11.775C12.8141 10.7362 13.3335 9.47782 13.3335 8.00004C13.3335 6.52226 12.8141 5.26393 11.7752 4.22504C10.7363 3.18615 9.47794 2.66671 8.00016 2.66671C6.52239 2.66671 5.26405 3.18615 4.22516 4.22504C3.18627 5.26393 2.66683 6.52226 2.66683 8.00004C2.66683 9.47782 3.18627 10.7362 4.22516 11.775C5.26405 12.8139 6.52239 13.3334 8.00016 13.3334Z" fill="#BFC9C2"/>
</g>
</svg>
