<svg width="24" height="24" viewBox="0 0 24 24" fill="none" xmlns="http://www.w3.org/2000/svg">
<g clip-path="url(#clip0_54985_76086)">
<mask id="mask0_54985_76086" style="mask-type:alpha" maskUnits="userSpaceOnUse" x="0" y="0" width="24" height="25">
<rect y="0.000244141" width="24" height="24" fill="#D9D9D9"/>
</mask>
<g mask="url(#mask0_54985_76086)">
<path d="M19 19.0002H8C7.45 19.0002 6.97917 18.8044 6.5875 18.4127C6.19583 18.0211 6 17.5502 6 17.0002V3.00024C6 2.45024 6.19583 1.97941 6.5875 1.58774C6.97917 1.19608 7.45 1.00024 8 1.00024H14.175C14.4417 1.00024 14.6958 1.05024 14.9375 1.15024C15.1792 1.25024 15.3917 1.39191 15.575 1.57524L20.425 6.42524C20.6083 6.60858 20.75 6.82108 20.85 7.06274C20.95 7.30441 21 7.55858 21 7.82524V17.0002C21 17.5502 20.8042 18.0211 20.4125 18.4127C20.0208 18.8044 19.55 19.0002 19 19.0002ZM19 8.00024H15.5C15.0833 8.00024 14.7292 7.85441 14.4375 7.56274C14.1458 7.27108 14 6.91691 14 6.50024V3.00024H8V17.0002H19V8.00024ZM4 23.0002C3.45 23.0002 2.97917 22.8044 2.5875 22.4127C2.19583 22.0211 2 21.5502 2 21.0002V8.00024C2 7.71691 2.09583 7.47941 2.2875 7.28774C2.47917 7.09608 2.71667 7.00024 3 7.00024C3.28333 7.00024 3.52083 7.09608 3.7125 7.28774C3.90417 7.47941 4 7.71691 4 8.00024V21.0002H14C14.2833 21.0002 14.5208 21.0961 14.7125 21.2877C14.9042 21.4794 15 21.7169 15 22.0002C15 22.2836 14.9042 22.5211 14.7125 22.7127C14.5208 22.9044 14.2833 23.0002 14 23.0002H4Z" fill="#67FF8D"/>
</g>
</g>
<defs>
<clipPath id="clip0_54985_76086">
<rect width="24" height="24" fill="white" transform="translate(0 0.000244141)"/>
</clipPath>
</defs>
</svg>
