<svg width="24" height="24" viewBox="0 0 24 24" fill="none" xmlns="http://www.w3.org/2000/svg">
<mask id="mask0_57705_2610" style="mask-type:alpha" maskUnits="userSpaceOnUse" x="0" y="0" width="24" height="24">
<rect width="24" height="24" fill="#D9D9D9"/>
</mask>
<g mask="url(#mask0_57705_2610)">
<path d="M4.91992 10.9463C4.36992 10.9463 3.89909 10.7505 3.50742 10.3588C3.11576 9.96712 2.91992 9.49629 2.91992 8.94629V4.94629C2.91992 4.39629 3.11576 3.92546 3.50742 3.53379C3.89909 3.14212 4.36992 2.94629 4.91992 2.94629H8.91992C9.46992 2.94629 9.94075 3.14212 10.3324 3.53379C10.7241 3.92546 10.9199 4.39629 10.9199 4.94629V8.94629C10.9199 9.49629 10.7241 9.96712 10.3324 10.3588C9.94075 10.7505 9.46992 10.9463 8.91992 10.9463H4.91992ZM4.91992 20.9463C4.36992 20.9463 3.89909 20.7505 3.50742 20.3588C3.11576 19.9671 2.91992 19.4963 2.91992 18.9463V14.9463C2.91992 14.3963 3.11576 13.9255 3.50742 13.5338C3.89909 13.1421 4.36992 12.9463 4.91992 12.9463H8.91992C9.46992 12.9463 9.94075 13.1421 10.3324 13.5338C10.7241 13.9255 10.9199 14.3963 10.9199 14.9463V18.9463C10.9199 19.4963 10.7241 19.9671 10.3324 20.3588C9.94075 20.7505 9.46992 20.9463 8.91992 20.9463H4.91992ZM14.9199 10.9463C14.3699 10.9463 13.8991 10.7505 13.5074 10.3588C13.1158 9.96712 12.9199 9.49629 12.9199 8.94629V4.94629C12.9199 4.39629 13.1158 3.92546 13.5074 3.53379C13.8991 3.14212 14.3699 2.94629 14.9199 2.94629H18.9199C19.4699 2.94629 19.9408 3.14212 20.3324 3.53379C20.7241 3.92546 20.9199 4.39629 20.9199 4.94629V8.94629C20.9199 9.49629 20.7241 9.96712 20.3324 10.3588C19.9408 10.7505 19.4699 10.9463 18.9199 10.9463H14.9199ZM14.9199 20.9463C14.3699 20.9463 13.8991 20.7505 13.5074 20.3588C13.1158 19.9671 12.9199 19.4963 12.9199 18.9463V14.9463C12.9199 14.3963 13.1158 13.9255 13.5074 13.5338C13.8991 13.1421 14.3699 12.9463 14.9199 12.9463H18.9199C19.4699 12.9463 19.9408 13.1421 20.3324 13.5338C20.7241 13.9255 20.9199 14.3963 20.9199 14.9463V18.9463C20.9199 19.4963 20.7241 19.9671 20.3324 20.3588C19.9408 20.7505 19.4699 20.9463 18.9199 20.9463H14.9199ZM4.91992 8.94629H8.91992V4.94629H4.91992V8.94629ZM14.9199 8.94629H18.9199V4.94629H14.9199V8.94629ZM14.9199 18.9463H18.9199V14.9463H14.9199V18.9463ZM4.91992 18.9463H8.91992V14.9463H4.91992V18.9463Z" fill="#E3E2E2"/>
</g>
</svg>
