<svg width="24" height="25" viewBox="0 0 24 25" fill="none" xmlns="http://www.w3.org/2000/svg">
<mask id="mask0_54869_39700" style="mask-type:alpha" maskUnits="userSpaceOnUse" x="0" y="0" width="24" height="25">
<rect y="0.5" width="24" height="24" fill="#D9D9D9"/>
</mask>
<g mask="url(#mask0_54869_39700)">
<path d="M12 21.4999L10.55 20.1999C8.86667 18.6832 7.475 17.3749 6.375 16.2749C5.275 15.1749 4.4 14.1874 3.75 13.3124C3.1 12.4374 2.64583 11.6332 2.3875 10.8999C2.12917 10.1666 2 9.41657 2 8.6499C2 7.08324 2.525 5.7749 3.575 4.7249C4.625 3.6749 5.93333 3.1499 7.5 3.1499C8.36667 3.1499 9.19167 3.33324 9.975 3.6999C10.7583 4.06657 11.4333 4.58324 12 5.2499C12.5667 4.58324 13.2417 4.06657 14.025 3.6999C14.8083 3.33324 15.6333 3.1499 16.5 3.1499C18.0667 3.1499 19.375 3.6749 20.425 4.7249C21.475 5.7749 22 7.08324 22 8.6499C22 9.41657 21.8708 10.1666 21.6125 10.8999C21.3542 11.6332 20.9 12.4374 20.25 13.3124C19.6 14.1874 18.725 15.1749 17.625 16.2749C16.525 17.3749 15.1333 18.6832 13.45 20.1999L12 21.4999Z" fill="#67FF8D"/>
</g>
</svg>
