<svg width="19" height="18" viewBox="0 0 19 18" fill="none" xmlns="http://www.w3.org/2000/svg">
<mask id="mask0_444_33" style="mask-type:alpha" maskUnits="userSpaceOnUse" x="0" y="0" width="25" height="25">
<rect x="0.5" y="0.000244141" width="24" height="24" fill="#D9D9D9"/>
</mask>
<g mask="url(#mask0_444_33)">
<path d="M7.35059 13.5002H11.8506C12.0631 13.5002 12.2412 13.4284 12.385 13.2846C12.5287 13.1409 12.6006 12.9627 12.6006 12.7502C12.6006 12.5377 12.5287 12.3596 12.385 12.2159C12.2412 12.0721 12.0631 12.0002 11.8506 12.0002H7.35059C7.13809 12.0002 6.95996 12.0721 6.81621 12.2159C6.67246 12.3596 6.60059 12.5377 6.60059 12.7502C6.60059 12.9627 6.67246 13.1409 6.81621 13.2846C6.95996 13.4284 7.13809 13.5002 7.35059 13.5002ZM7.35059 10.5002H11.8506C12.0631 10.5002 12.2412 10.4284 12.385 10.2846C12.5287 10.1409 12.6006 9.96274 12.6006 9.75024C12.6006 9.53774 12.5287 9.35962 12.385 9.21587C12.2412 9.07212 12.0631 9.00024 11.8506 9.00024H7.35059C7.13809 9.00024 6.95996 9.07212 6.81621 9.21587C6.67246 9.35962 6.60059 9.53774 6.60059 9.75024C6.60059 9.96274 6.67246 10.1409 6.81621 10.2846C6.95996 10.4284 7.13809 10.5002 7.35059 10.5002ZM5.10059 16.5002C4.68809 16.5002 4.33496 16.3534 4.04121 16.0596C3.74746 15.7659 3.60059 15.4127 3.60059 15.0002V3.00024C3.60059 2.58774 3.74746 2.23462 4.04121 1.94087C4.33496 1.64712 4.68809 1.50024 5.10059 1.50024H10.4818C10.6818 1.50024 10.8725 1.53774 11.0537 1.61274C11.235 1.68774 11.3943 1.79399 11.5318 1.93149L15.1693 5.56899C15.3068 5.70649 15.4131 5.86587 15.4881 6.04712C15.5631 6.22837 15.6006 6.41899 15.6006 6.61899V15.0002C15.6006 15.4127 15.4537 15.7659 15.16 16.0596C14.8662 16.3534 14.5131 16.5002 14.1006 16.5002H5.10059ZM10.3506 6.00024V3.00024H5.10059V15.0002H14.1006V6.75024H11.1006C10.8881 6.75024 10.71 6.67837 10.5662 6.53462C10.4225 6.39087 10.3506 6.21274 10.3506 6.00024Z" fill="#003828"/>
</g>
</svg>
