<svg width="25" height="24" viewBox="0 0 25 24" fill="none" xmlns="http://www.w3.org/2000/svg">
<mask id="mask0_55529_4509" style="mask-type:alpha" maskUnits="userSpaceOnUse" x="0" y="0" width="25" height="24">
<rect x="0.800293" width="24" height="24" fill="#D9D9D9"/>
</mask>
<g mask="url(#mask0_55529_4509)">
<path d="M12.8003 4C15.0336 4 16.9253 4.775 18.4753 6.325C20.0253 7.875 20.8003 9.76667 20.8003 12C20.8003 14.2333 20.0253 16.125 18.4753 17.675C16.9253 19.225 15.0336 20 12.8003 20C10.567 20 8.67529 19.225 7.12529 17.675C5.57529 16.125 4.80029 14.2333 4.80029 12C4.80029 9.76667 5.57529 7.875 7.12529 6.325C8.67529 4.775 10.567 4 12.8003 4ZM12.8003 18C14.467 18 15.8836 17.4167 17.0503 16.25C18.217 15.0833 18.8003 13.6667 18.8003 12C18.8003 10.3333 18.217 8.91667 17.0503 7.75C15.8836 6.58333 14.467 6 12.8003 6C11.1336 6 9.71696 6.58333 8.55029 7.75C7.38363 8.91667 6.80029 10.3333 6.80029 12C6.80029 13.6667 7.38363 15.0833 8.55029 16.25C9.71696 17.4167 11.1336 18 12.8003 18ZM12.8003 15.5C13.6003 15.5 14.317 15.2708 14.9503 14.8125C15.5836 14.3542 16.0336 13.75 16.3003 13H9.30029C9.56696 13.75 10.017 14.3542 10.6503 14.8125C11.2836 15.2708 12.0003 15.5 12.8003 15.5ZM9.30029 10C9.30029 10.2833 9.39613 10.5208 9.58779 10.7125C9.77946 10.9042 10.017 11 10.3003 11C10.5836 11 10.8211 10.9042 11.0128 10.7125C11.2045 10.5208 11.3003 10.2833 11.3003 10C11.3003 9.71667 11.2045 9.47917 11.0128 9.2875C10.8211 9.09583 10.5836 9 10.3003 9C10.017 9 9.77946 9.09583 9.58779 9.2875C9.39613 9.47917 9.30029 9.71667 9.30029 10ZM14.3003 10C14.3003 10.2833 14.3961 10.5208 14.5878 10.7125C14.7795 10.9042 15.017 11 15.3003 11C15.5836 11 15.8211 10.9042 16.0128 10.7125C16.2045 10.5208 16.3003 10.2833 16.3003 10C16.3003 9.71667 16.2045 9.47917 16.0128 9.2875C15.8211 9.09583 15.5836 9 15.3003 9C15.017 9 14.7795 9.09583 14.5878 9.2875C14.3961 9.47917 14.3003 9.71667 14.3003 10ZM1.80029 6V3C1.80029 2.45 1.99613 1.97917 2.38779 1.5875C2.77946 1.19583 3.25029 1 3.80029 1H6.80029V3H3.80029V6H1.80029ZM6.80029 23H3.80029C3.25029 23 2.77946 22.8042 2.38779 22.4125C1.99613 22.0208 1.80029 21.55 1.80029 21V18H3.80029V21H6.80029V23ZM18.8003 23V21H21.8003V18H23.8003V21C23.8003 21.55 23.6045 22.0208 23.2128 22.4125C22.8211 22.8042 22.3503 23 21.8003 23H18.8003ZM21.8003 6V3H18.8003V1H21.8003C22.3503 1 22.8211 1.19583 23.2128 1.5875C23.6045 1.97917 23.8003 2.45 23.8003 3V6H21.8003Z" fill="#C1C8C9"/>
</g>
</svg>
