<svg width="24" height="24" viewBox="0 0 24 24" fill="none" xmlns="http://www.w3.org/2000/svg">
<g clip-path="url(#clip0_54985_76056)">
<mask id="mask0_54985_76056" style="mask-type:alpha" maskUnits="userSpaceOnUse" x="0" y="0" width="24" height="24">
<rect width="24" height="24" fill="#D9D9D9"/>
</mask>
<g mask="url(#mask0_54985_76056)">
<path d="M6.6 3C7.65 3 8.65 3.22083 9.6 3.6625C10.55 4.10417 11.35 4.71667 12 5.5C12.65 4.71667 13.45 4.10417 14.4 3.6625C15.35 3.22083 16.35 3 17.4 3C19.2667 3 20.8333 3.63333 22.1 4.9C23.3667 6.16667 24 7.73333 24 9.6C24 10.2333 23.9167 10.8583 23.75 11.475C23.5833 12.0917 23.35 12.7 23.05 13.3C22.8667 12.9833 22.65 12.7 22.4 12.45C22.15 12.2 21.8583 12 21.525 11.85C21.675 11.4667 21.7917 11.0917 21.875 10.725C21.9583 10.3583 22 9.98333 22 9.6C22 8.3 21.5583 7.20833 20.675 6.325C19.7917 5.44167 18.7 5 17.4 5C16.05 5 15.0125 5.37083 14.2875 6.1125C13.5625 6.85417 12.8 7.68333 12 8.6C11.2 7.66667 10.4375 6.83333 9.7125 6.1C8.9875 5.36667 7.95 5 6.6 5C5.3 5 4.20833 5.44167 3.325 6.325C2.44167 7.20833 2 8.3 2 9.6C2 9.98333 2.04167 10.3583 2.125 10.725C2.20833 11.0917 2.325 11.4667 2.475 11.85C2.14167 12 1.85 12.2 1.6 12.45C1.35 12.7 1.13333 12.9833 0.95 13.3C0.65 12.7 0.416667 12.0917 0.25 11.475C0.0833333 10.8583 0 10.2333 0 9.6C0 7.73333 0.633333 6.16667 1.9 4.9C3.16667 3.63333 4.73333 3 6.6 3ZM1 22C0.716667 22 0.479167 21.9042 0.2875 21.7125C0.0958333 21.5208 0 21.2833 0 21V20.425C0 19.6917 0.366667 19.1042 1.1 18.6625C1.83333 18.2208 2.8 18 4 18C4.21667 18 4.42083 18.0083 4.6125 18.025C4.80417 18.0417 4.99167 18.0667 5.175 18.1C4.94167 18.4333 4.77083 18.7917 4.6625 19.175C4.55417 19.5583 4.5 19.9667 4.5 20.4V22H1ZM7 22C6.71667 22 6.47917 21.9042 6.2875 21.7125C6.09583 21.5208 6 21.2833 6 21V20.4C6 19.3167 6.55417 18.4375 7.6625 17.7625C8.77083 17.0875 10.2167 16.75 12 16.75C13.8 16.75 15.25 17.0875 16.35 17.7625C17.45 18.4375 18 19.3167 18 20.4V21C18 21.2833 17.9042 21.5208 17.7125 21.7125C17.5208 21.9042 17.2833 22 17 22H7ZM19.5 22V20.4C19.5 19.9667 19.4417 19.5583 19.325 19.175C19.2083 18.7917 19.0417 18.4333 18.825 18.1C19.0083 18.0667 19.1958 18.0417 19.3875 18.025C19.5792 18.0083 19.7833 18 20 18C21.2 18 22.1667 18.2208 22.9 18.6625C23.6333 19.1042 24 19.6917 24 20.425V21C24 21.2833 23.9042 21.5208 23.7125 21.7125C23.5208 21.9042 23.2833 22 23 22H19.5ZM12 18.75C11.05 18.75 10.2 18.8792 9.45 19.1375C8.7 19.3958 8.25833 19.6833 8.125 20H15.875C15.725 19.6667 15.2792 19.375 14.5375 19.125C13.7958 18.875 12.95 18.75 12 18.75ZM4 17C3.45 17 2.97917 16.8042 2.5875 16.4125C2.19583 16.0208 2 15.55 2 15C2 14.45 2.19583 13.9792 2.5875 13.5875C2.97917 13.1958 3.45 13 4 13C4.55 13 5.02083 13.1958 5.4125 13.5875C5.80417 13.9792 6 14.45 6 15C6 15.55 5.80417 16.0208 5.4125 16.4125C5.02083 16.8042 4.55 17 4 17ZM20 17C19.45 17 18.9792 16.8042 18.5875 16.4125C18.1958 16.0208 18 15.55 18 15C18 14.45 18.1958 13.9792 18.5875 13.5875C18.9792 13.1958 19.45 13 20 13C20.55 13 21.0208 13.1958 21.4125 13.5875C21.8042 13.9792 22 14.45 22 15C22 15.55 21.8042 16.0208 21.4125 16.4125C21.0208 16.8042 20.55 17 20 17ZM12 16C11.1667 16 10.4583 15.7083 9.875 15.125C9.29167 14.5417 9 13.8333 9 13C9 12.1667 9.29167 11.4583 9.875 10.875C10.4583 10.2917 11.1667 10 12 10C12.8333 10 13.5417 10.2917 14.125 10.875C14.7083 11.4583 15 12.1667 15 13C15 13.8333 14.7083 14.5417 14.125 15.125C13.5417 15.7083 12.8333 16 12 16ZM12 12C11.7167 12 11.4792 12.0958 11.2875 12.2875C11.0958 12.4792 11 12.7167 11 13C11 13.2833 11.0958 13.5208 11.2875 13.7125C11.4792 13.9042 11.7167 14 12 14C12.2833 14 12.5208 13.9042 12.7125 13.7125C12.9042 13.5208 13 13.2833 13 13C13 12.7167 12.9042 12.4792 12.7125 12.2875C12.5208 12.0958 12.2833 12 12 12Z" fill="#67FF8D"/>
</g>
</g>
<defs>
<clipPath id="clip0_54985_76056">
<rect width="24" height="24" fill="white"/>
</clipPath>
</defs>
</svg>
