<svg width="16" height="16" viewBox="0 0 16 16" fill="none" xmlns="http://www.w3.org/2000/svg">
<mask id="mask0_202_5477" style="mask-type:alpha" maskUnits="userSpaceOnUse" x="0" y="0" width="16" height="16">
<rect width="16" height="16" fill="#D9D9D9"/>
</mask>
<g mask="url(#mask0_202_5477)">
<path d="M8 13.5692C9.525 12.2169 10.6562 10.9884 11.3938 9.88357C12.1313 8.77878 12.5 7.79776 12.5 6.94049C12.5 5.62441 12.0656 4.54679 11.1969 3.70763C10.3281 2.86848 9.2625 2.4489 8 2.4489C6.7375 2.4489 5.67188 2.86848 4.80312 3.70763C3.93438 4.54679 3.5 5.62441 3.5 6.94049C3.5 7.79776 3.86875 8.77878 4.60625 9.88357C5.34375 10.9884 6.475 12.2169 8 13.5692ZM8 15C7.825 15 7.65 14.9698 7.475 14.9094C7.3 14.8491 7.14375 14.7585 7.00625 14.6378C6.19375 13.9133 5.475 13.207 4.85 12.5188C4.225 11.8305 3.70312 11.1634 3.28437 10.5175C2.86562 9.8715 2.54688 9.24968 2.32812 8.652C2.10937 8.05433 2 7.48383 2 6.94049C2 5.12937 2.60312 3.6865 3.80938 2.6119C5.01563 1.5373 6.4125 1 8 1C9.5875 1 10.9844 1.5373 12.1906 2.6119C13.3969 3.6865 14 5.12937 14 6.94049C14 7.48383 13.8906 8.05433 13.6719 8.652C13.4531 9.24968 13.1344 9.8715 12.7156 10.5175C12.2969 11.1634 11.775 11.8305 11.15 12.5188C10.525 13.207 9.80625 13.9133 8.99375 14.6378C8.85625 14.7585 8.7 14.8491 8.525 14.9094C8.35 14.9698 8.175 15 8 15ZM8 8.2445C8.4125 8.2445 8.76563 8.10263 9.05938 7.81889C9.35313 7.53514 9.5 7.19405 9.5 6.7956C9.5 6.39715 9.35313 6.05606 9.05938 5.77232C8.76563 5.48857 8.4125 5.3467 8 5.3467C7.5875 5.3467 7.23438 5.48857 6.94063 5.77232C6.64687 6.05606 6.5 6.39715 6.5 6.7956C6.5 7.19405 6.64687 7.53514 6.94063 7.81889C7.23438 8.10263 7.5875 8.2445 8 8.2445Z" fill="#BFC9C2"/>
</g>
</svg>
