<svg width="24" height="24" viewBox="0 0 24 24" fill="none" xmlns="http://www.w3.org/2000/svg">
<mask id="mask0_55387_1085" style="mask-type:alpha" maskUnits="userSpaceOnUse" x="0" y="0" width="24" height="24">
<rect width="24" height="24" fill="#D9D9D9"/>
</mask>
<g mask="url(#mask0_55387_1085)">
<path d="M12 21L10.55 19.7C8.86667 18.1833 7.475 16.875 6.375 15.775C5.275 14.675 4.4 13.6875 3.75 12.8125C3.1 11.9375 2.64583 11.1333 2.3875 10.4C2.12917 9.66667 2 8.91667 2 8.15C2 6.58333 2.525 5.275 3.575 4.225C4.625 3.175 5.93333 2.65 7.5 2.65C8.36667 2.65 9.19167 2.83333 9.975 3.2C10.7583 3.56667 11.4333 4.08333 12 4.75C12.5667 4.08333 13.2417 3.56667 14.025 3.2C14.8083 2.83333 15.6333 2.65 16.5 2.65C18.0667 2.65 19.375 3.175 20.425 4.225C21.475 5.275 22 6.58333 22 8.15C22 8.91667 21.8708 9.66667 21.6125 10.4C21.3542 11.1333 20.9 11.9375 20.25 12.8125C19.6 13.6875 18.725 14.675 17.625 15.775C16.525 16.875 15.1333 18.1833 13.45 19.7L12 21ZM12 18.3C13.6 16.8667 14.9167 15.6375 15.95 14.6125C16.9833 13.5875 17.8 12.6958 18.4 11.9375C19 11.1792 19.4167 10.5042 19.65 9.9125C19.8833 9.32083 20 8.73333 20 8.15C20 7.15 19.6667 6.31667 19 5.65C18.3333 4.98333 17.5 4.65 16.5 4.65C15.7167 4.65 14.9917 4.87083 14.325 5.3125C13.6583 5.75417 13.2 6.31667 12.95 7H11.05C10.8 6.31667 10.3417 5.75417 9.675 5.3125C9.00833 4.87083 8.28333 4.65 7.5 4.65C6.5 4.65 5.66667 4.98333 5 5.65C4.33333 6.31667 4 7.15 4 8.15C4 8.73333 4.11667 9.32083 4.35 9.9125C4.58333 10.5042 5 11.1792 5.6 11.9375C6.2 12.6958 7.01667 13.5875 8.05 14.6125C9.08333 15.6375 10.4 16.8667 12 18.3Z" fill="#A0F1AA"/>
</g>
</svg>
