<svg width="24" height="24" viewBox="0 0 24 24" fill="none" xmlns="http://www.w3.org/2000/svg">
<g clip-path="url(#clip0_54985_76093)">
<mask id="mask0_54985_76093" style="mask-type:alpha" maskUnits="userSpaceOnUse" x="0" y="0" width="24" height="25">
<rect y="0.000244141" width="24" height="24" fill="#D9D9D9"/>
</mask>
<g mask="url(#mask0_54985_76093)">
<path d="M4.975 21.0003C4.69167 21.0003 4.45833 20.9044 4.275 20.7128C4.09167 20.5211 4 20.2836 4 20.0003C4 19.7169 4.09583 19.4794 4.2875 19.2878C4.47917 19.0961 4.71667 19.0003 5 19.0003H15.025C15.3083 19.0003 15.5417 19.0961 15.725 19.2878C15.9083 19.4794 16 19.7169 16 20.0003C16 20.2836 15.9042 20.5211 15.7125 20.7128C15.5208 20.9044 15.2833 21.0003 15 21.0003H4.975ZM8.225 14.7253L5.4 11.9003C5.01667 11.5169 4.82083 11.0461 4.8125 10.4878C4.80417 9.92943 4.99167 9.4586 5.375 9.07527L6.1 8.35027L11.8 14.0003L11.075 14.7253C10.6917 15.1086 10.2167 15.3003 9.65 15.3003C9.08333 15.3003 8.60833 15.1086 8.225 14.7253ZM16 9.80027L10.35 4.10027L11.075 3.37527C11.4583 2.99193 11.9292 2.80443 12.4875 2.81277C13.0458 2.8211 13.5167 3.01693 13.9 3.40027L16.725 6.22527C17.1083 6.6086 17.3 7.0836 17.3 7.65027C17.3 8.21693 17.1083 8.69193 16.725 9.07527L16 9.80027ZM19.9 19.3003L7.55 6.95027L8.95 5.55027L21.325 17.9253C21.5083 18.1086 21.5958 18.3378 21.5875 18.6128C21.5792 18.8878 21.4833 19.1169 21.3 19.3003C21.1167 19.4836 20.8833 19.5753 20.6 19.5753C20.3167 19.5753 20.0833 19.4836 19.9 19.3003Z" fill="#67FF8D"/>
</g>
</g>
<defs>
<clipPath id="clip0_54985_76093">
<rect width="24" height="24" fill="white" transform="translate(0 0.000244141)"/>
</clipPath>
</defs>
</svg>
