<svg width="25" height="24" viewBox="0 0 25 24" fill="none" xmlns="http://www.w3.org/2000/svg">
<mask id="mask0_55529_4489" style="mask-type:alpha" maskUnits="userSpaceOnUse" x="0" y="0" width="25" height="24">
<rect x="0.600098" width="24" height="24" fill="#D9D9D9"/>
</mask>
<g mask="url(#mask0_55529_4489)">
<path d="M15.6001 21L9.6001 18.9L4.9501 20.7C4.61676 20.8333 4.30843 20.7958 4.0251 20.5875C3.74176 20.3792 3.6001 20.1 3.6001 19.75V5.75C3.6001 5.53333 3.6626 5.34167 3.7876 5.175C3.9126 5.00833 4.08343 4.88333 4.3001 4.8L9.6001 3L15.6001 5.1L20.2501 3.3C20.5834 3.16667 20.8918 3.20417 21.1751 3.4125C21.4584 3.62083 21.6001 3.9 21.6001 4.25V18.25C21.6001 18.4667 21.5376 18.6583 21.4126 18.825C21.2876 18.9917 21.1168 19.1167 20.9001 19.2L15.6001 21ZM14.6001 18.55V6.85L10.6001 5.45V17.15L14.6001 18.55ZM16.6001 18.55L19.6001 17.55V5.7L16.6001 6.85V18.55ZM5.6001 18.3L8.6001 17.15V5.45L5.6001 6.45V18.3Z" fill="#C1C8C9"/>
</g>
</svg>
