<svg width="24" height="24" viewBox="0 0 24 24" fill="none" xmlns="http://www.w3.org/2000/svg">
<g clip-path="url(#clip0_54985_76063)">
<mask id="mask0_54985_76063" style="mask-type:alpha" maskUnits="userSpaceOnUse" x="0" y="0" width="24" height="24">
<rect width="24" height="24" fill="#D9D9D9"/>
</mask>
<g mask="url(#mask0_54985_76063)">
<path d="M7.275 10.475C7.40833 10.6083 7.57917 10.6792 7.7875 10.6875C7.99583 10.6958 8.175 10.6333 8.325 10.5L8.9 9.95L9.425 10.475C9.575 10.625 9.75 10.7 9.95 10.7C10.15 10.7 10.325 10.625 10.475 10.475C10.625 10.325 10.6958 10.15 10.6875 9.95C10.6792 9.75 10.6083 9.575 10.475 9.425L9.6 8.525C9.5 8.425 9.39167 8.35 9.275 8.3C9.15833 8.25 9.03333 8.225 8.9 8.225C8.76667 8.225 8.6375 8.25 8.5125 8.3C8.3875 8.35 8.275 8.425 8.175 8.525L7.275 9.425C7.125 9.575 7.05 9.75 7.05 9.95C7.05 10.15 7.125 10.325 7.275 10.475ZM13.525 10.475C13.675 10.625 13.85 10.7 14.05 10.7C14.25 10.7 14.425 10.625 14.575 10.475L15.1 9.95L15.675 10.5C15.825 10.6333 16 10.7 16.2 10.7C16.4 10.7 16.575 10.625 16.725 10.475C16.875 10.325 16.95 10.15 16.95 9.95C16.95 9.75 16.875 9.575 16.725 9.425L15.825 8.525C15.725 8.425 15.6125 8.35 15.4875 8.3C15.3625 8.25 15.2333 8.225 15.1 8.225C14.9667 8.225 14.8417 8.25 14.725 8.3C14.6083 8.35 14.5 8.425 14.4 8.525L13.5 9.425C13.3667 9.575 13.3 9.75 13.3 9.95C13.3 10.15 13.375 10.325 13.525 10.475ZM12 22C10.6167 22 9.31667 21.7375 8.1 21.2125C6.88333 20.6875 5.825 19.975 4.925 19.075C4.025 18.175 3.3125 17.1167 2.7875 15.9C2.2625 14.6833 2 13.3833 2 12C2 10.6167 2.2625 9.31667 2.7875 8.1C3.3125 6.88333 4.025 5.825 4.925 4.925C5.825 4.025 6.88333 3.3125 8.1 2.7875C9.31667 2.2625 10.6167 2 12 2C13.3833 2 14.6833 2.2625 15.9 2.7875C17.1167 3.3125 18.175 4.025 19.075 4.925C19.975 5.825 20.6875 6.88333 21.2125 8.1C21.7375 9.31667 22 10.6167 22 12C22 13.3833 21.7375 14.6833 21.2125 15.9C20.6875 17.1167 19.975 18.175 19.075 19.075C18.175 19.975 17.1167 20.6875 15.9 21.2125C14.6833 21.7375 13.3833 22 12 22ZM12 20C14.2167 20 16.1042 19.2208 17.6625 17.6625C19.2208 16.1042 20 14.2167 20 12C20 9.78333 19.2208 7.89583 17.6625 6.3375C16.1042 4.77917 14.2167 4 12 4C9.78333 4 7.89583 4.77917 6.3375 6.3375C4.77917 7.89583 4 9.78333 4 12C4 14.2167 4.77917 16.1042 6.3375 17.6625C7.89583 19.2208 9.78333 20 12 20ZM12 17.5C13.0333 17.5 13.9583 17.25 14.775 16.75C15.5917 16.25 16.2417 15.5917 16.725 14.775C16.8417 14.575 16.85 14.3958 16.75 14.2375C16.65 14.0792 16.4833 14 16.25 14H7.75C7.51667 14 7.35 14.0792 7.25 14.2375C7.15 14.3958 7.15833 14.575 7.275 14.775C7.75833 15.5917 8.40833 16.25 9.225 16.75C10.0417 17.25 10.9667 17.5 12 17.5Z" fill="#67FF8D"/>
</g>
</g>
<defs>
<clipPath id="clip0_54985_76063">
<rect width="24" height="24" fill="white"/>
</clipPath>
</defs>
</svg>
