<svg width="24" height="24" viewBox="0 0 24 24" fill="none" xmlns="http://www.w3.org/2000/svg">
<mask id="mask0_57705_3498" style="mask-type:alpha" maskUnits="userSpaceOnUse" x="0" y="0" width="24" height="24">
<rect width="24" height="24" fill="#D9D9D9"/>
</mask>
<g mask="url(#mask0_57705_3498)">
<path d="M7.06641 17H11.0664C11.3497 17 11.5872 16.9042 11.7789 16.7125C11.9706 16.5208 12.0664 16.2833 12.0664 16C12.0664 15.7167 11.9706 15.4792 11.7789 15.2875C11.5872 15.0958 11.3497 15 11.0664 15H7.06641C6.78307 15 6.54557 15.0958 6.35391 15.2875C6.16224 15.4792 6.06641 15.7167 6.06641 16C6.06641 16.2833 6.16224 16.5208 6.35391 16.7125C6.54557 16.9042 6.78307 17 7.06641 17ZM10.0664 13H14.0664C14.3497 13 14.5872 12.9042 14.7789 12.7125C14.9706 12.5208 15.0664 12.2833 15.0664 12C15.0664 11.7167 14.9706 11.4792 14.7789 11.2875C14.5872 11.0958 14.3497 11 14.0664 11H10.0664C9.78307 11 9.54557 11.0958 9.35391 11.2875C9.16224 11.4792 9.06641 11.7167 9.06641 12C9.06641 12.2833 9.16224 12.5208 9.35391 12.7125C9.54557 12.9042 9.78307 13 10.0664 13ZM13.0664 9H17.0664C17.3497 9 17.5872 8.90417 17.7789 8.7125C17.9706 8.52083 18.0664 8.28333 18.0664 8C18.0664 7.71667 17.9706 7.47917 17.7789 7.2875C17.5872 7.09583 17.3497 7 17.0664 7H13.0664C12.7831 7 12.5456 7.09583 12.3539 7.2875C12.1622 7.47917 12.0664 7.71667 12.0664 8C12.0664 8.28333 12.1622 8.52083 12.3539 8.7125C12.5456 8.90417 12.7831 9 13.0664 9ZM5.06641 21C4.51641 21 4.04557 20.8042 3.65391 20.4125C3.26224 20.0208 3.06641 19.55 3.06641 19V5C3.06641 4.45 3.26224 3.97917 3.65391 3.5875C4.04557 3.19583 4.51641 3 5.06641 3H19.0664C19.6164 3 20.0872 3.19583 20.4789 3.5875C20.8706 3.97917 21.0664 4.45 21.0664 5V19C21.0664 19.55 20.8706 20.0208 20.4789 20.4125C20.0872 20.8042 19.6164 21 19.0664 21H5.06641ZM5.06641 19H19.0664V5H5.06641V19Z" fill="#E3E2E2"/>
</g>
</svg>
