<svg width="16" height="16" viewBox="0 0 16 16" fill="none" xmlns="http://www.w3.org/2000/svg">
<mask id="mask0_54985_76035" style="mask-type:alpha" maskUnits="userSpaceOnUse" x="0" y="0" width="16" height="16">
<rect width="16" height="16" fill="#D9D9D9"/>
</mask>
<g mask="url(#mask0_54985_76035)">
<path d="M8.66683 7.73325V5.33325C8.66683 5.14436 8.60294 4.98603 8.47516 4.85825C8.34739 4.73047 8.18905 4.66659 8.00016 4.66659C7.81127 4.66659 7.65294 4.73047 7.52516 4.85825C7.39739 4.98603 7.3335 5.14436 7.3335 5.33325V7.98325C7.3335 8.07214 7.35016 8.15825 7.3835 8.24159C7.41683 8.32492 7.46683 8.39992 7.5335 8.46659L9.7335 10.6666C9.85572 10.7888 10.0113 10.8499 10.2002 10.8499C10.3891 10.8499 10.5446 10.7888 10.6668 10.6666C10.7891 10.5444 10.8502 10.3888 10.8502 10.1999C10.8502 10.011 10.7891 9.85547 10.6668 9.73325L8.66683 7.73325ZM8.00016 14.6666C7.07794 14.6666 6.21127 14.4916 5.40016 14.1416C4.58905 13.7916 3.8835 13.3166 3.2835 12.7166C2.6835 12.1166 2.2085 11.411 1.8585 10.5999C1.5085 9.78881 1.3335 8.92214 1.3335 7.99992C1.3335 7.0777 1.5085 6.21103 1.8585 5.39992C2.2085 4.58881 2.6835 3.88325 3.2835 3.28325C3.8835 2.68325 4.58905 2.20825 5.40016 1.85825C6.21127 1.50825 7.07794 1.33325 8.00016 1.33325C8.92239 1.33325 9.78905 1.50825 10.6002 1.85825C11.4113 2.20825 12.1168 2.68325 12.7168 3.28325C13.3168 3.88325 13.7918 4.58881 14.1418 5.39992C14.4918 6.21103 14.6668 7.0777 14.6668 7.99992C14.6668 8.92214 14.4918 9.78881 14.1418 10.5999C13.7918 11.411 13.3168 12.1166 12.7168 12.7166C12.1168 13.3166 11.4113 13.7916 10.6002 14.1416C9.78905 14.4916 8.92239 14.6666 8.00016 14.6666ZM8.00016 13.3333C9.47794 13.3333 10.7363 12.8138 11.7752 11.7749C12.8141 10.736 13.3335 9.4777 13.3335 7.99992C13.3335 6.52214 12.8141 5.26381 11.7752 4.22492C10.7363 3.18603 9.47794 2.66659 8.00016 2.66659C6.52239 2.66659 5.26405 3.18603 4.22516 4.22492C3.18627 5.26381 2.66683 6.52214 2.66683 7.99992C2.66683 9.4777 3.18627 10.736 4.22516 11.7749C5.26405 12.8138 6.52239 13.3333 8.00016 13.3333Z" fill="#E3E2E2"/>
</g>
</svg>
