<svg width="16" height="16" viewBox="0 0 16 16" fill="none" xmlns="http://www.w3.org/2000/svg">
<mask id="mask0_202_5484" style="mask-type:alpha" maskUnits="userSpaceOnUse" x="0" y="0" width="16" height="16">
<rect width="16" height="16" fill="#D9D9D9"/>
</mask>
<g mask="url(#mask0_202_5484)">
<path d="M8.00016 14.6667C7.08905 14.6667 6.22794 14.4917 5.41683 14.1417C4.60572 13.7917 3.89739 13.3139 3.29183 12.7084C2.68627 12.1028 2.2085 11.3945 1.8585 10.5834C1.5085 9.77226 1.3335 8.91115 1.3335 8.00004C1.3335 7.07782 1.5085 6.21393 1.8585 5.40837C2.2085 4.60282 2.68627 3.89726 3.29183 3.29171C3.89739 2.68615 4.60572 2.20837 5.41683 1.85837C6.22794 1.50837 7.08905 1.33337 8.00016 1.33337C8.92239 1.33337 9.78627 1.50837 10.5918 1.85837C11.3974 2.20837 12.1029 2.68615 12.7085 3.29171C13.3141 3.89726 13.7918 4.60282 14.1418 5.40837C14.4918 6.21393 14.6668 7.07782 14.6668 8.00004C14.6668 8.91115 14.4918 9.77226 14.1418 10.5834C13.7918 11.3945 13.3141 12.1028 12.7085 12.7084C12.1029 13.3139 11.3974 13.7917 10.5918 14.1417C9.78627 14.4917 8.92239 14.6667 8.00016 14.6667ZM8.00016 13.3C8.28905 12.9 8.53905 12.4834 8.75016 12.05C8.96127 11.6167 9.1335 11.1556 9.26683 10.6667H6.7335C6.86683 11.1556 7.03905 11.6167 7.25016 12.05C7.46127 12.4834 7.71127 12.9 8.00016 13.3ZM6.26683 13.0334C6.06683 12.6667 5.89183 12.2862 5.74183 11.8917C5.59183 11.4973 5.46683 11.0889 5.36683 10.6667H3.40016C3.72239 11.2223 4.12516 11.7056 4.6085 12.1167C5.09183 12.5278 5.64461 12.8334 6.26683 13.0334ZM9.7335 13.0334C10.3557 12.8334 10.9085 12.5278 11.3918 12.1167C11.8752 11.7056 12.2779 11.2223 12.6002 10.6667H10.6335C10.5335 11.0889 10.4085 11.4973 10.2585 11.8917C10.1085 12.2862 9.9335 12.6667 9.7335 13.0334ZM2.8335 9.33337H5.10016C5.06683 9.11115 5.04183 8.89171 5.02516 8.67504C5.0085 8.45837 5.00016 8.23337 5.00016 8.00004C5.00016 7.76671 5.0085 7.54171 5.02516 7.32504C5.04183 7.10837 5.06683 6.88893 5.10016 6.66671H2.8335C2.77794 6.88893 2.73627 7.10837 2.7085 7.32504C2.68072 7.54171 2.66683 7.76671 2.66683 8.00004C2.66683 8.23337 2.68072 8.45837 2.7085 8.67504C2.73627 8.89171 2.77794 9.11115 2.8335 9.33337ZM6.4335 9.33337H9.56683C9.60016 9.11115 9.62516 8.89171 9.64183 8.67504C9.6585 8.45837 9.66683 8.23337 9.66683 8.00004C9.66683 7.76671 9.6585 7.54171 9.64183 7.32504C9.62516 7.10837 9.60016 6.88893 9.56683 6.66671H6.4335C6.40016 6.88893 6.37516 7.10837 6.3585 7.32504C6.34183 7.54171 6.3335 7.76671 6.3335 8.00004C6.3335 8.23337 6.34183 8.45837 6.3585 8.67504C6.37516 8.89171 6.40016 9.11115 6.4335 9.33337ZM10.9002 9.33337H13.1668C13.2224 9.11115 13.2641 8.89171 13.2918 8.67504C13.3196 8.45837 13.3335 8.23337 13.3335 8.00004C13.3335 7.76671 13.3196 7.54171 13.2918 7.32504C13.2641 7.10837 13.2224 6.88893 13.1668 6.66671H10.9002C10.9335 6.88893 10.9585 7.10837 10.9752 7.32504C10.9918 7.54171 11.0002 7.76671 11.0002 8.00004C11.0002 8.23337 10.9918 8.45837 10.9752 8.67504C10.9585 8.89171 10.9335 9.11115 10.9002 9.33337ZM10.6335 5.33337H12.6002C12.2779 4.77782 11.8752 4.29449 11.3918 3.88337C10.9085 3.47226 10.3557 3.16671 9.7335 2.96671C9.9335 3.33337 10.1085 3.71393 10.2585 4.10837C10.4085 4.50282 10.5335 4.91115 10.6335 5.33337ZM6.7335 5.33337H9.26683C9.1335 4.84449 8.96127 4.38337 8.75016 3.95004C8.53905 3.51671 8.28905 3.10004 8.00016 2.70004C7.71127 3.10004 7.46127 3.51671 7.25016 3.95004C7.03905 4.38337 6.86683 4.84449 6.7335 5.33337ZM3.40016 5.33337H5.36683C5.46683 4.91115 5.59183 4.50282 5.74183 4.10837C5.89183 3.71393 6.06683 3.33337 6.26683 2.96671C5.64461 3.16671 5.09183 3.47226 4.6085 3.88337C4.12516 4.29449 3.72239 4.77782 3.40016 5.33337Z" fill="#BFC9C2"/>
</g>
</svg>
