<svg width="19" height="18" viewBox="0 0 19 18" fill="none" xmlns="http://www.w3.org/2000/svg">
<mask id="mask0_444_1352" style="mask-type:alpha" maskUnits="userSpaceOnUse" x="0" y="0" width="25" height="25">
<rect x="0.5" y="0.000244141" width="24" height="24" fill="#D9D9D9"/>
</mask>
<g mask="url(#mask0_444_1352)">
<path d="M8.4875 11.8127L12.1438 9.46899C12.3188 9.35649 12.4062 9.20024 12.4062 9.00024C12.4062 8.80024 12.3188 8.64399 12.1438 8.53149L8.4875 6.18774C8.3 6.06274 8.10938 6.05337 7.91563 6.15962C7.72188 6.26587 7.625 6.43149 7.625 6.65649V11.344C7.625 11.569 7.72188 11.7346 7.91563 11.8409C8.10938 11.9471 8.3 11.9377 8.4875 11.8127ZM9.5 16.5002C8.4625 16.5002 7.4875 16.3034 6.575 15.9096C5.6625 15.5159 4.86875 14.9815 4.19375 14.3065C3.51875 13.6315 2.98438 12.8377 2.59063 11.9252C2.19687 11.0127 2 10.0377 2 9.00024C2 7.96274 2.19687 6.98774 2.59063 6.07524C2.98438 5.16274 3.51875 4.36899 4.19375 3.69399C4.86875 3.01899 5.6625 2.48462 6.575 2.09087C7.4875 1.69712 8.4625 1.50024 9.5 1.50024C10.5375 1.50024 11.5125 1.69712 12.425 2.09087C13.3375 2.48462 14.1313 3.01899 14.8063 3.69399C15.4813 4.36899 16.0156 5.16274 16.4094 6.07524C16.8031 6.98774 17 7.96274 17 9.00024C17 10.0377 16.8031 11.0127 16.4094 11.9252C16.0156 12.8377 15.4813 13.6315 14.8063 14.3065C14.1313 14.9815 13.3375 15.5159 12.425 15.9096C11.5125 16.3034 10.5375 16.5002 9.5 16.5002ZM9.5 15.0002C11.175 15.0002 12.5938 14.419 13.7563 13.2565C14.9187 12.094 15.5 10.6752 15.5 9.00024C15.5 7.32524 14.9187 5.90649 13.7563 4.74399C12.5938 3.58149 11.175 3.00024 9.5 3.00024C7.825 3.00024 6.40625 3.58149 5.24375 4.74399C4.08125 5.90649 3.5 7.32524 3.5 9.00024C3.5 10.6752 4.08125 12.094 5.24375 13.2565C6.40625 14.419 7.825 15.0002 9.5 15.0002Z" fill="#003828"/>
</g>
</svg>
